<?xml version="1.0" encoding="UTF-8" standalone="no"?>
<svg
   width="1024"
   height="500"
   viewBox="0 0 1024 500"
   version="1.1"
   xmlns="http://www.w3.org/2000/svg">
  <defs>
    <clipPath id="icon-clip">
      <rect x="0" y="0" width="1024" height="1024" rx="180" ry="180" />
    </clipPath>
  </defs>

  <!-- Background -->
  <rect width="1024" height="500" fill="#fdfdfb" />

  <!-- Icon, scaled from the 1024x1024 master and placed left, vertically centered -->
  <g transform="translate(60,90) scale(0.3125)">
    <g clip-path="url(#icon-clip)">
      <rect width="1024" height="1024" fill="#a6d583" />
      <path d="M 512,172 C 705,155 855,320 845,520 835,725 690,875 500,858 305,840 165,690 178,498 190,310 320,189 512,172 Z"
            fill="none" stroke="#5f6a57" stroke-width="11" opacity="0.5" />
      <path d="m 512.22259,59.250483 c 258,-22 453,187.999997 440,462.999997 -14,275 -207,460 -457,443 -250,-18 -440.000001,-223 -423.000001,-473 16,-245 183.000001,-410.999997 440.000001,-432.999997 z"
            fill="none" stroke="#5f6a57" stroke-width="11" opacity="0.32" />
      <path d="m 512.18232,-58.590001 c 323,-22 562.99998,238.000001 549.99998,588.000001 -14,350 -261.99998,575 -571.99998,553 -310,-23 -544.999994,-283 -527.999994,-593 16,-310 227.999994,-526.000001 549.999994,-548.000001 z"
            fill="none" stroke="#5f6a57" stroke-width="11" opacity="0.18" />
      <path d="M 60,1000 C 300,915 133.39706,677.33636 323.39706,592.33636 458.39706,530.33636 445,570 512,512 c 78,-67 0,0 233.34524,-70.71068 C 837.22024,357.66432 741.25,286.25 831.25,171.25 881.25,106.25 945,110 1000,40"
            fill="none" stroke="#5f6a57" stroke-width="40" stroke-linecap="round" stroke-dasharray="70, 84" opacity="0.85" />
      <g transform="matrix(0.9999973,0,0,1,0.00168719,-2.2111775e-5)">
        <g transform="rotate(45,512,512)">
          <path d="m 397.00023,296.99977 115,-115 115,115"
                fill="none" stroke="#ffffff" stroke-width="62" stroke-linecap="round" stroke-linejoin="round" />
        </g>
        <g>
          <circle cx="512" cy="512" r="205" fill="#ffffff" />
          <circle cx="512" cy="512" r="160" fill="#007aff" />
          <text x="512" y="558" font-family="Arial, 'Helvetica Neue', sans-serif" font-weight="bold"
                font-size="135px" fill="#ffffff" text-anchor="middle">DW</text>
        </g>
      </g>
    </g>
  </g>

  <!-- Wordmark + tagline, right of icon -->
  <text x="420" y="255" font-family="Arial, 'Helvetica Neue', sans-serif" font-weight="800"
        font-size="76px" fill="#1a1c1e">Dot Watcher</text>
  <text x="420" y="305" font-family="Arial, 'Helvetica Neue', sans-serif" font-weight="400"
        font-size="32px" fill="#44483f">Share your live location in real time</text>
</svg>
